# xmcd
#
# Track frame offsets: 
#        150
#        3729
#        18941
#        22070
#        33382
#        53236
#        57895
#        80907
#        94911
#        111878
#        156550
#        174259
#        180133
#        195375
#        208689
#        229016
#        243815
#
# Disc length: 3774 seconds
#
# Revision: 0
# Processed by: cddbd v1.5.2PL0 Copyright (c) Steve Scherf et al.
# Submitted via: ExactAudioCopy v1.0b3
#
DISCID=d70ebc11
DTITLE=Frank Ocean - Channel Orange
DYEAR=2012
DGENRE=R&B
TTITLE0=Start
TTITLE1=Thinking About You
TTITLE2=Fertilizer
TTITLE3=Sierra Leone
TTITLE4=Sweet Life
TTITLE5=Not Just Money
TTITLE6=Super Rich Kids ft Earl Sweatshirt
TTITLE7=Pilot Jones
TTITLE8=Crack Rock
TTITLE9=Pyramids
TTITLE10=Lost
TTITLE11=White ft John Mayer
TTITLE12=Monks
TTITLE13=Bad Religion
TTITLE14=Pink Matter
TTITLE15=Forrest Gump
TTITLE16=End
EXTD=
EXTT0=
EXTT1=
EXTT2=
EXTT3=
EXTT4=
EXTT5=
EXTT6=
EXTT7=
EXTT8=
EXTT9=
EXTT10=
EXTT11=
EXTT12=
EXTT13=
EXTT14=
EXTT15=
EXTT16=
PLAYORDER=
